<?xml version="1.0" encoding="UTF-8"?>
<svg xmlns="http://www.w3.org/2000/svg" xmlns:xlink="http://www.w3.org/1999/xlink" width="1920" height="1080" viewBox="0 0 1920 1080">
<defs>
<g>
<g id="glyph-0-0">
<path d="M 1.96875 0 L 6.734375 -10.4375 L 0.484375 -10.4375 L 0.484375 -12.703125 L 9.578125 -12.703125 L 9.578125 -11 L 4.78125 0 Z "/>
</g>
<g id="glyph-0-1">
<path d="M 0.625 -5.390625 C 0.625 -6.117188 0.675781 -6.835938 0.78125 -7.546875 C 0.882812 -8.265625 1.070312 -8.941406 1.34375 -9.578125 C 1.613281 -10.210938 1.988281 -10.773438 2.46875 -11.265625 C 2.945312 -11.753906 3.554688 -12.140625 4.296875 -12.421875 C 5.035156 -12.703125 5.929688 -12.84375 6.984375 -12.84375 C 7.234375 -12.84375 7.523438 -12.832031 7.859375 -12.8125 C 8.191406 -12.789062 8.46875 -12.757812 8.6875 -12.71875 L 8.6875 -10.5625 C 8.46875 -10.625 8.222656 -10.664062 7.953125 -10.6875 C 7.691406 -10.71875 7.429688 -10.734375 7.171875 -10.734375 C 6.109375 -10.734375 5.289062 -10.566406 4.71875 -10.234375 C 4.144531 -9.910156 3.738281 -9.445312 3.5 -8.84375 C 3.257812 -8.25 3.125 -7.5625 3.09375 -6.78125 L 3.203125 -6.78125 C 3.441406 -7.1875 3.78125 -7.53125 4.21875 -7.8125 C 4.664062 -8.101562 5.242188 -8.25 5.953125 -8.25 C 7.066406 -8.25 7.945312 -7.898438 8.59375 -7.203125 C 9.25 -6.503906 9.578125 -5.515625 9.578125 -4.234375 C 9.578125 -2.859375 9.1875 -1.78125 8.40625 -1 C 7.632812 -0.21875 6.585938 0.171875 5.265625 0.171875 C 4.398438 0.171875 3.613281 -0.0234375 2.90625 -0.421875 C 2.207031 -0.816406 1.648438 -1.425781 1.234375 -2.25 C 0.828125 -3.070312 0.625 -4.117188 0.625 -5.390625 Z M 5.203125 -1.96875 C 5.734375 -1.96875 6.160156 -2.148438 6.484375 -2.515625 C 6.816406 -2.878906 6.984375 -3.441406 6.984375 -4.203125 C 6.984375 -4.816406 6.84375 -5.300781 6.5625 -5.65625 C 6.28125 -6.007812 5.847656 -6.1875 5.265625 -6.1875 C 4.867188 -6.1875 4.519531 -6.097656 4.21875 -5.921875 C 3.925781 -5.753906 3.695312 -5.535156 3.53125 -5.265625 C 3.375 -4.992188 3.296875 -4.710938 3.296875 -4.421875 C 3.296875 -4.035156 3.363281 -3.65625 3.5 -3.28125 C 3.644531 -2.90625 3.863281 -2.59375 4.15625 -2.34375 C 4.445312 -2.09375 4.796875 -1.96875 5.203125 -1.96875 Z "/>
</g>
</g>
</defs>
<g fill="rgb(94.509804%, 76.862745%, 5.882353%)" fill-opacity="1">
<use xlink:href="#glyph-0-0" x="30" y="39.003906"/>
<use xlink:href="#glyph-0-1" x="40" y="39.003906"/>
</g>
</svg>
