<?xml version="1.0" encoding="UTF-8"?>
<svg xmlns="http://www.w3.org/2000/svg" xmlns:xlink="http://www.w3.org/1999/xlink" width="1920" height="1080" viewBox="0 0 1920 1080">
<defs>
<g>
<g id="glyph-0-0">
<path d="M 7.53125 0 L 5.4375 0 L 5.4375 -14.8125 L 0.234375 -14.8125 L 0.234375 -16.65625 L 12.71875 -16.65625 L 12.71875 -14.8125 L 7.53125 -14.8125 Z "/>
</g>
<g id="glyph-0-1">
<path d="M 4.03125 -12.53125 C 4.03125 -11.90625 3.992188 -11.320312 3.921875 -10.78125 L 4.0625 -10.78125 C 4.46875 -11.414062 5.015625 -11.894531 5.703125 -12.21875 C 6.390625 -12.550781 7.140625 -12.71875 7.953125 -12.71875 C 9.472656 -12.71875 10.613281 -12.351562 11.375 -11.625 C 12.144531 -10.90625 12.53125 -9.742188 12.53125 -8.140625 L 12.53125 0 L 10.5 0 L 10.5 -8 C 10.5 -10.007812 9.566406 -11.015625 7.703125 -11.015625 C 6.296875 -11.015625 5.332031 -10.617188 4.8125 -9.828125 C 4.289062 -9.046875 4.03125 -7.925781 4.03125 -6.46875 L 4.03125 0 L 1.984375 0 L 1.984375 -17.734375 L 4.03125 -17.734375 Z "/>
</g>
<g id="glyph-0-2">
<path d="M 3.03125 -17.1875 C 3.34375 -17.1875 3.617188 -17.082031 3.859375 -16.875 C 4.097656 -16.664062 4.21875 -16.335938 4.21875 -15.890625 C 4.21875 -15.453125 4.097656 -15.125 3.859375 -14.90625 C 3.617188 -14.6875 3.34375 -14.578125 3.03125 -14.578125 C 2.6875 -14.578125 2.394531 -14.6875 2.15625 -14.90625 C 1.925781 -15.125 1.8125 -15.453125 1.8125 -15.890625 C 1.8125 -16.335938 1.925781 -16.664062 2.15625 -16.875 C 2.394531 -17.082031 2.6875 -17.1875 3.03125 -17.1875 Z M 4.03125 -12.5 L 4.03125 0 L 1.984375 0 L 1.984375 -12.5 Z "/>
</g>
<g id="glyph-0-3">
<path d="M 10.125 -3.453125 C 10.125 -2.242188 9.671875 -1.328125 8.765625 -0.703125 C 7.867188 -0.078125 6.65625 0.234375 5.125 0.234375 C 4.257812 0.234375 3.507812 0.160156 2.875 0.015625 C 2.25 -0.117188 1.695312 -0.3125 1.21875 -0.5625 L 1.21875 -2.421875 C 1.707031 -2.171875 2.304688 -1.941406 3.015625 -1.734375 C 3.722656 -1.523438 4.441406 -1.421875 5.171875 -1.421875 C 6.210938 -1.421875 6.96875 -1.585938 7.4375 -1.921875 C 7.90625 -2.253906 8.140625 -2.703125 8.140625 -3.265625 C 8.140625 -3.578125 8.050781 -3.859375 7.875 -4.109375 C 7.707031 -4.359375 7.398438 -4.601562 6.953125 -4.84375 C 6.515625 -5.09375 5.882812 -5.375 5.0625 -5.6875 C 4.25 -6 3.554688 -6.3125 2.984375 -6.625 C 2.410156 -6.9375 1.96875 -7.304688 1.65625 -7.734375 C 1.34375 -8.171875 1.1875 -8.734375 1.1875 -9.421875 C 1.1875 -10.484375 1.617188 -11.300781 2.484375 -11.875 C 3.347656 -12.445312 4.476562 -12.734375 5.875 -12.734375 C 6.632812 -12.734375 7.34375 -12.660156 8 -12.515625 C 8.664062 -12.367188 9.289062 -12.160156 9.875 -11.890625 L 9.171875 -10.265625 C 8.640625 -10.484375 8.085938 -10.671875 7.515625 -10.828125 C 6.941406 -10.984375 6.347656 -11.0625 5.734375 -11.0625 C 4.898438 -11.0625 4.257812 -10.921875 3.8125 -10.640625 C 3.375 -10.367188 3.15625 -10.003906 3.15625 -9.546875 C 3.15625 -9.203125 3.253906 -8.910156 3.453125 -8.671875 C 3.648438 -8.429688 3.984375 -8.195312 4.453125 -7.96875 C 4.929688 -7.738281 5.570312 -7.46875 6.375 -7.15625 C 7.164062 -6.863281 7.835938 -6.5625 8.390625 -6.25 C 8.953125 -5.9375 9.378906 -5.554688 9.671875 -5.109375 C 9.972656 -4.671875 10.125 -4.117188 10.125 -3.453125 Z "/>
</g>
<g id="glyph-0-4">
</g>
<g id="glyph-0-5">
<path d="M 6.71875 -12.71875 C 8.238281 -12.71875 9.363281 -12.378906 10.09375 -11.703125 C 10.832031 -11.035156 11.203125 -9.972656 11.203125 -8.515625 L 11.203125 0 L 9.703125 0 L 9.3125 -1.765625 L 9.21875 -1.765625 C 8.664062 -1.085938 8.09375 -0.582031 7.5 -0.25 C 6.90625 0.0703125 6.078125 0.234375 5.015625 0.234375 C 3.878906 0.234375 2.9375 -0.0625 2.1875 -0.65625 C 1.445312 -1.257812 1.078125 -2.195312 1.078125 -3.46875 C 1.078125 -4.71875 1.566406 -5.679688 2.546875 -6.359375 C 3.523438 -7.035156 5.03125 -7.40625 7.0625 -7.46875 L 9.1875 -7.53125 L 9.1875 -8.28125 C 9.1875 -9.320312 8.960938 -10.046875 8.515625 -10.453125 C 8.066406 -10.859375 7.429688 -11.0625 6.609375 -11.0625 C 5.953125 -11.0625 5.328125 -10.960938 4.734375 -10.765625 C 4.140625 -10.566406 3.585938 -10.34375 3.078125 -10.09375 L 2.453125 -11.640625 C 2.992188 -11.929688 3.632812 -12.179688 4.375 -12.390625 C 5.125 -12.609375 5.90625 -12.71875 6.71875 -12.71875 Z M 7.328125 -6.046875 C 5.773438 -5.984375 4.695312 -5.734375 4.09375 -5.296875 C 3.5 -4.859375 3.203125 -4.242188 3.203125 -3.453125 C 3.203125 -2.753906 3.414062 -2.238281 3.84375 -1.90625 C 4.269531 -1.582031 4.816406 -1.421875 5.484375 -1.421875 C 6.535156 -1.421875 7.410156 -1.710938 8.109375 -2.296875 C 8.816406 -2.878906 9.171875 -3.78125 9.171875 -5 L 9.171875 -6.109375 Z "/>
</g>
<g id="glyph-0-6">
<path d="M 4.734375 0 L 0 -12.5 L 2.1875 -12.5 L 4.859375 -5.125 C 4.972656 -4.789062 5.097656 -4.410156 5.234375 -3.984375 C 5.378906 -3.566406 5.503906 -3.164062 5.609375 -2.78125 C 5.722656 -2.40625 5.804688 -2.082031 5.859375 -1.8125 L 5.953125 -1.8125 C 6.015625 -2.082031 6.101562 -2.410156 6.21875 -2.796875 C 6.332031 -3.179688 6.460938 -3.582031 6.609375 -4 C 6.753906 -4.425781 6.882812 -4.800781 7 -5.125 L 9.65625 -12.5 L 11.84375 -12.5 L 7.09375 0 Z "/>
</g>
<g id="glyph-0-7">
<path d="M 6.8125 -12.734375 C 7.882812 -12.734375 8.804688 -12.5 9.578125 -12.03125 C 10.347656 -11.570312 10.9375 -10.914062 11.34375 -10.0625 C 11.757812 -9.21875 11.96875 -8.226562 11.96875 -7.09375 L 11.96875 -5.859375 L 3.40625 -5.859375 C 3.4375 -4.441406 3.796875 -3.363281 4.484375 -2.625 C 5.179688 -1.882812 6.148438 -1.515625 7.390625 -1.515625 C 8.179688 -1.515625 8.882812 -1.585938 9.5 -1.734375 C 10.113281 -1.878906 10.75 -2.09375 11.40625 -2.375 L 11.40625 -0.578125 C 10.769531 -0.296875 10.140625 -0.09375 9.515625 0.03125 C 8.890625 0.164062 8.148438 0.234375 7.296875 0.234375 C 6.117188 0.234375 5.070312 -0.00390625 4.15625 -0.484375 C 3.25 -0.972656 2.539062 -1.691406 2.03125 -2.640625 C 1.53125 -3.597656 1.28125 -4.769531 1.28125 -6.15625 C 1.28125 -7.53125 1.507812 -8.707031 1.96875 -9.6875 C 2.425781 -10.664062 3.070312 -11.414062 3.90625 -11.9375 C 4.738281 -12.46875 5.707031 -12.734375 6.8125 -12.734375 Z M 6.78125 -11.0625 C 5.800781 -11.0625 5.023438 -10.742188 4.453125 -10.109375 C 3.890625 -9.484375 3.554688 -8.609375 3.453125 -7.484375 L 9.828125 -7.484375 C 9.804688 -8.546875 9.550781 -9.40625 9.0625 -10.0625 C 8.582031 -10.726562 7.820312 -11.0625 6.78125 -11.0625 Z "/>
</g>
<g id="glyph-0-8">
<path d="M 7.8125 -12.734375 C 8.050781 -12.734375 8.304688 -12.722656 8.578125 -12.703125 C 8.847656 -12.679688 9.082031 -12.644531 9.28125 -12.59375 L 9.03125 -10.703125 C 8.820312 -10.753906 8.597656 -10.796875 8.359375 -10.828125 C 8.117188 -10.859375 7.890625 -10.875 7.671875 -10.875 C 7.035156 -10.875 6.4375 -10.695312 5.875 -10.34375 C 5.3125 -10 4.863281 -9.507812 4.53125 -8.875 C 4.195312 -8.25 4.03125 -7.515625 4.03125 -6.671875 L 4.03125 0 L 1.984375 0 L 1.984375 -12.5 L 3.65625 -12.5 L 3.890625 -10.21875 L 3.984375 -10.21875 C 4.390625 -10.90625 4.910156 -11.492188 5.546875 -11.984375 C 6.191406 -12.484375 6.945312 -12.734375 7.8125 -12.734375 Z "/>
</g>
<g id="glyph-0-9">
<path d="M 0.015625 -12.5 L 2.21875 -12.5 L 4.921875 -5.390625 C 5.148438 -4.765625 5.359375 -4.164062 5.546875 -3.59375 C 5.734375 -3.03125 5.875 -2.492188 5.96875 -1.984375 L 6.0625 -1.984375 C 6.15625 -2.367188 6.300781 -2.875 6.5 -3.5 C 6.707031 -4.132812 6.921875 -4.769531 7.140625 -5.40625 L 9.6875 -12.5 L 11.890625 -12.5 L 6.515625 1.71875 C 6.078125 2.90625 5.507812 3.847656 4.8125 4.546875 C 4.125 5.242188 3.171875 5.59375 1.953125 5.59375 C 1.585938 5.59375 1.265625 5.570312 0.984375 5.53125 C 0.703125 5.5 0.457031 5.457031 0.25 5.40625 L 0.25 3.78125 C 0.425781 3.8125 0.632812 3.84375 0.875 3.875 C 1.113281 3.90625 1.367188 3.921875 1.640625 3.921875 C 2.347656 3.921875 2.921875 3.71875 3.359375 3.3125 C 3.804688 2.90625 4.15625 2.367188 4.40625 1.703125 L 5.0625 0.046875 Z "/>
</g>
<g id="glyph-0-10">
<path d="M 4.03125 0 L 1.984375 0 L 1.984375 -17.734375 L 4.03125 -17.734375 Z "/>
</g>
<g id="glyph-0-11">
<path d="M 12.859375 -6.28125 C 12.859375 -4.207031 12.332031 -2.601562 11.28125 -1.46875 C 10.226562 -0.332031 8.804688 0.234375 7.015625 0.234375 C 5.910156 0.234375 4.925781 -0.015625 4.0625 -0.515625 C 3.207031 -1.023438 2.53125 -1.765625 2.03125 -2.734375 C 1.53125 -3.710938 1.28125 -4.894531 1.28125 -6.28125 C 1.28125 -8.34375 1.800781 -9.929688 2.84375 -11.046875 C 3.882812 -12.171875 5.300781 -12.734375 7.09375 -12.734375 C 8.226562 -12.734375 9.226562 -12.476562 10.09375 -11.96875 C 10.957031 -11.46875 11.632812 -10.738281 12.125 -9.78125 C 12.613281 -8.820312 12.859375 -7.65625 12.859375 -6.28125 Z M 3.40625 -6.28125 C 3.40625 -4.800781 3.695312 -3.628906 4.28125 -2.765625 C 4.863281 -1.898438 5.789062 -1.46875 7.0625 -1.46875 C 8.320312 -1.46875 9.25 -1.898438 9.84375 -2.765625 C 10.4375 -3.628906 10.734375 -4.800781 10.734375 -6.28125 C 10.734375 -7.75 10.4375 -8.90625 9.84375 -9.75 C 9.25 -10.59375 8.316406 -11.015625 7.046875 -11.015625 C 5.765625 -11.015625 4.835938 -10.59375 4.265625 -9.75 C 3.691406 -8.90625 3.40625 -7.75 3.40625 -6.28125 Z "/>
</g>
<g id="glyph-0-12">
<path d="M 8 -12.734375 C 9.488281 -12.734375 10.613281 -12.367188 11.375 -11.640625 C 12.144531 -10.921875 12.53125 -9.753906 12.53125 -8.140625 L 12.53125 0 L 10.5 0 L 10.5 -8 C 10.5 -10.007812 9.566406 -11.015625 7.703125 -11.015625 C 6.316406 -11.015625 5.359375 -10.625 4.828125 -9.84375 C 4.296875 -9.0625 4.03125 -7.941406 4.03125 -6.484375 L 4.03125 0 L 1.984375 0 L 1.984375 -12.5 L 3.640625 -12.5 L 3.9375 -10.796875 L 4.0625 -10.796875 C 4.46875 -11.453125 5.023438 -11.9375 5.734375 -12.25 C 6.453125 -12.570312 7.207031 -12.734375 8 -12.734375 Z "/>
</g>
<g id="glyph-0-13">
<path d="M 6.421875 -12.734375 C 7.242188 -12.734375 7.984375 -12.578125 8.640625 -12.265625 C 9.304688 -11.953125 9.867188 -11.476562 10.328125 -10.84375 L 10.453125 -10.84375 L 10.734375 -12.5 L 12.359375 -12.5 L 12.359375 0.203125 C 12.359375 1.992188 11.90625 3.335938 11 4.234375 C 10.09375 5.140625 8.679688 5.59375 6.765625 5.59375 C 4.929688 5.59375 3.429688 5.332031 2.265625 4.8125 L 2.265625 2.921875 C 3.492188 3.566406 5.03125 3.890625 6.875 3.890625 C 7.945312 3.890625 8.789062 3.570312 9.40625 2.9375 C 10.019531 2.3125 10.328125 1.457031 10.328125 0.375 L 10.328125 -0.109375 C 10.328125 -0.296875 10.332031 -0.566406 10.34375 -0.921875 C 10.363281 -1.273438 10.382812 -1.519531 10.40625 -1.65625 L 10.3125 -1.65625 C 9.46875 -0.394531 8.175781 0.234375 6.4375 0.234375 C 4.820312 0.234375 3.554688 -0.332031 2.640625 -1.46875 C 1.734375 -2.601562 1.28125 -4.191406 1.28125 -6.234375 C 1.28125 -8.222656 1.734375 -9.800781 2.640625 -10.96875 C 3.554688 -12.144531 4.816406 -12.734375 6.421875 -12.734375 Z M 6.6875 -11.015625 C 5.644531 -11.015625 4.835938 -10.597656 4.265625 -9.765625 C 3.691406 -8.929688 3.40625 -7.742188 3.40625 -6.203125 C 3.40625 -4.660156 3.6875 -3.484375 4.25 -2.671875 C 4.820312 -1.859375 5.648438 -1.453125 6.734375 -1.453125 C 7.992188 -1.453125 8.910156 -1.785156 9.484375 -2.453125 C 10.066406 -3.128906 10.359375 -4.222656 10.359375 -5.734375 L 10.359375 -6.234375 C 10.359375 -7.941406 10.0625 -9.164062 9.46875 -9.90625 C 8.875 -10.644531 7.945312 -11.015625 6.6875 -11.015625 Z "/>
</g>
<g id="glyph-0-14">
<path d="M 6.15625 -1.453125 C 6.46875 -1.453125 6.785156 -1.476562 7.109375 -1.53125 C 7.441406 -1.582031 7.707031 -1.640625 7.90625 -1.703125 L 7.90625 -0.140625 C 7.6875 -0.0351562 7.375 0.0507812 6.96875 0.125 C 6.570312 0.195312 6.1875 0.234375 5.8125 0.234375 C 5.15625 0.234375 4.550781 0.125 4 -0.09375 C 3.445312 -0.320312 3 -0.71875 2.65625 -1.28125 C 2.3125 -1.84375 2.140625 -2.628906 2.140625 -3.640625 L 2.140625 -10.921875 L 0.375 -10.921875 L 0.375 -11.890625 L 2.171875 -12.71875 L 2.984375 -15.375 L 4.203125 -15.375 L 4.203125 -12.5 L 7.8125 -12.5 L 7.8125 -10.921875 L 4.203125 -10.921875 L 4.203125 -3.6875 C 4.203125 -2.925781 4.382812 -2.363281 4.75 -2 C 5.113281 -1.632812 5.582031 -1.453125 6.15625 -1.453125 Z "/>
</g>
<g id="glyph-0-15">
<path d="M 10.046875 -7.0625 C 9.847656 -7.707031 9.675781 -8.335938 9.53125 -8.953125 C 9.382812 -9.566406 9.269531 -10.039062 9.1875 -10.375 L 9.09375 -10.375 C 9.03125 -10.039062 8.925781 -9.566406 8.78125 -8.953125 C 8.644531 -8.335938 8.472656 -7.703125 8.265625 -7.046875 L 6.015625 -0.015625 L 3.6875 -0.015625 L 0.25 -12.53125 L 2.375 -12.53125 L 4.109375 -5.859375 C 4.273438 -5.191406 4.4375 -4.515625 4.59375 -3.828125 C 4.75 -3.140625 4.859375 -2.570312 4.921875 -2.125 L 5.015625 -2.125 C 5.078125 -2.382812 5.148438 -2.707031 5.234375 -3.09375 C 5.316406 -3.488281 5.410156 -3.898438 5.515625 -4.328125 C 5.628906 -4.753906 5.742188 -5.140625 5.859375 -5.484375 L 8.078125 -12.53125 L 10.3125 -12.53125 L 12.453125 -5.484375 C 12.628906 -4.953125 12.796875 -4.375 12.953125 -3.75 C 13.117188 -3.132812 13.234375 -2.597656 13.296875 -2.140625 L 13.390625 -2.140625 C 13.429688 -2.535156 13.535156 -3.070312 13.703125 -3.75 C 13.867188 -4.4375 14.046875 -5.140625 14.234375 -5.859375 L 15.984375 -12.53125 L 18.078125 -12.53125 L 14.609375 -0.015625 L 12.203125 -0.015625 Z "/>
</g>
<g id="glyph-0-16">
<path d="M 3.734375 -16.65625 L 3.265625 -10.640625 L 1.984375 -10.640625 L 1.515625 -16.65625 Z "/>
</g>
<g id="glyph-0-17">
<path d="M 7.75 -10.921875 L 4.59375 -10.921875 L 4.59375 0 L 2.546875 0 L 2.546875 -10.921875 L 0.34375 -10.921875 L 0.34375 -11.875 L 2.546875 -12.578125 L 2.546875 -13.296875 C 2.546875 -14.910156 2.898438 -16.070312 3.609375 -16.78125 C 4.328125 -17.488281 5.328125 -17.84375 6.609375 -17.84375 C 7.097656 -17.84375 7.546875 -17.800781 7.953125 -17.71875 C 8.367188 -17.632812 8.726562 -17.535156 9.03125 -17.421875 L 8.484375 -15.8125 C 8.242188 -15.894531 7.957031 -15.972656 7.625 -16.046875 C 7.300781 -16.128906 6.96875 -16.171875 6.625 -16.171875 C 5.9375 -16.171875 5.425781 -15.941406 5.09375 -15.484375 C 4.757812 -15.023438 4.59375 -14.304688 4.59375 -13.328125 L 4.59375 -12.5 L 7.75 -12.5 Z M 11.0625 -17.1875 C 11.375 -17.1875 11.648438 -17.082031 11.890625 -16.875 C 12.128906 -16.664062 12.25 -16.335938 12.25 -15.890625 C 12.25 -15.453125 12.128906 -15.125 11.890625 -14.90625 C 11.648438 -14.6875 11.375 -14.578125 11.0625 -14.578125 C 10.71875 -14.578125 10.425781 -14.6875 10.1875 -14.90625 C 9.957031 -15.125 9.84375 -15.453125 9.84375 -15.890625 C 9.84375 -16.335938 9.957031 -16.664062 10.1875 -16.875 C 10.425781 -17.082031 10.71875 -17.1875 11.0625 -17.1875 Z M 12.0625 -12.5 L 12.0625 0 L 10.015625 0 L 10.015625 -12.5 Z "/>
</g>
</g>
</defs>
<g fill="rgb(100%, 100%, 100%)" fill-opacity="1">
<use xlink:href="#glyph-0-0" x="30" y="44.943359"/>
<use xlink:href="#glyph-0-1" x="43" y="44.943359"/>
<use xlink:href="#glyph-0-2" x="57" y="44.943359"/>
<use xlink:href="#glyph-0-3" x="63" y="44.943359"/>
<use xlink:href="#glyph-0-4" x="74" y="44.943359"/>
<use xlink:href="#glyph-0-2" x="80" y="44.943359"/>
<use xlink:href="#glyph-0-3" x="86" y="44.943359"/>
<use xlink:href="#glyph-0-4" x="97" y="44.943359"/>
<use xlink:href="#glyph-0-5" x="103" y="44.943359"/>
<use xlink:href="#glyph-0-4" x="116" y="44.943359"/>
<use xlink:href="#glyph-0-6" x="122" y="44.943359"/>
<use xlink:href="#glyph-0-7" x="134" y="44.943359"/>
<use xlink:href="#glyph-0-8" x="147" y="44.943359"/>
<use xlink:href="#glyph-0-9" x="157" y="44.943359"/>
<use xlink:href="#glyph-0-4" x="169" y="44.943359"/>
<use xlink:href="#glyph-0-10" x="175" y="44.943359"/>
<use xlink:href="#glyph-0-11" x="181" y="44.943359"/>
<use xlink:href="#glyph-0-12" x="195" y="44.943359"/>
<use xlink:href="#glyph-0-13" x="209" y="44.943359"/>
<use xlink:href="#glyph-0-4" x="223" y="44.943359"/>
<use xlink:href="#glyph-0-3" x="229" y="44.943359"/>
<use xlink:href="#glyph-0-14" x="240" y="44.943359"/>
<use xlink:href="#glyph-0-8" x="248" y="44.943359"/>
<use xlink:href="#glyph-0-2" x="258" y="44.943359"/>
<use xlink:href="#glyph-0-12" x="264" y="44.943359"/>
<use xlink:href="#glyph-0-13" x="278" y="44.943359"/>
<use xlink:href="#glyph-0-4" x="292" y="44.943359"/>
<use xlink:href="#glyph-0-14" x="298" y="44.943359"/>
<use xlink:href="#glyph-0-1" x="306" y="44.943359"/>
<use xlink:href="#glyph-0-5" x="320" y="44.943359"/>
<use xlink:href="#glyph-0-14" x="333" y="44.943359"/>
<use xlink:href="#glyph-0-4" x="341" y="44.943359"/>
<use xlink:href="#glyph-0-15" x="347" y="44.943359"/>
<use xlink:href="#glyph-0-11" x="365" y="44.943359"/>
<use xlink:href="#glyph-0-12" x="379" y="44.943359"/>
<use xlink:href="#glyph-0-16" x="393" y="44.943359"/>
<use xlink:href="#glyph-0-14" x="398" y="44.943359"/>
<use xlink:href="#glyph-0-4" x="406" y="44.943359"/>
<use xlink:href="#glyph-0-17" x="412" y="44.943359"/>
<use xlink:href="#glyph-0-14" x="426" y="44.943359"/>
</g>
</svg>
