<?xml version="1.0" encoding="UTF-8"?>
<svg xmlns="http://www.w3.org/2000/svg" xmlns:xlink="http://www.w3.org/1999/xlink" width="1920" height="1080" viewBox="0 0 1920 1080">
<defs>
<g>
<g id="glyph-0-0">
<path d="M 4.03125 -6.453125 C 3.257812 -6.453125 2.65625 -6.191406 2.21875 -5.671875 C 1.78125 -5.160156 1.5625 -4.457031 1.5625 -3.5625 C 1.5625 -2.675781 1.765625 -1.972656 2.171875 -1.453125 C 2.585938 -0.941406 3.203125 -0.6875 4.015625 -0.6875 C 4.328125 -0.6875 4.625 -0.710938 4.90625 -0.765625 C 5.1875 -0.816406 5.460938 -0.882812 5.734375 -0.96875 L 5.734375 -0.1875 C 5.460938 -0.09375 5.1875 -0.0234375 4.90625 0.015625 C 4.625 0.0664062 4.285156 0.09375 3.890625 0.09375 C 3.160156 0.09375 2.550781 -0.0507812 2.0625 -0.34375 C 1.582031 -0.644531 1.21875 -1.070312 0.96875 -1.625 C 0.726562 -2.175781 0.609375 -2.828125 0.609375 -3.578125 C 0.609375 -4.296875 0.738281 -4.929688 1 -5.484375 C 1.269531 -6.035156 1.660156 -6.460938 2.171875 -6.765625 C 2.679688 -7.078125 3.304688 -7.234375 4.046875 -7.234375 C 4.796875 -7.234375 5.453125 -7.09375 6.015625 -6.8125 L 5.65625 -6.0625 C 5.425781 -6.15625 5.175781 -6.242188 4.90625 -6.328125 C 4.644531 -6.410156 4.351562 -6.453125 4.03125 -6.453125 Z "/>
</g>
</g>
</defs>
<g fill="rgb(58.431373%, 64.705882%, 65.098039%)" fill-opacity="1">
<use xlink:href="#glyph-0-0" x="30" y="30.69043"/>
</g>
</svg>
